<svg width="24" height="24" viewBox="0 0 24 24" fill="none" xmlns="http://www.w3.org/2000/svg">
<path d="M4.00002 13.5L15.9629 13.5L13.9365 15.5264C13.3512 16.1117 13.3512 17.0583 13.9365 17.6436C14.5217 18.2288 15.4683 18.2288 16.0536 17.6436L20.6436 13.0536C21.2288 12.4683 21.2288 11.5217 20.6436 10.9364L16.0536 6.34645C15.4683 5.76119 14.5217 5.76119 13.9365 6.34645C13.3514 6.93151 13.3512 7.87763 13.9359 8.46294C13.9359 8.46296 13.9359 8.46298 13.9359 8.463C13.9361 8.46318 13.9363 8.46337 13.9365 8.46355L15.9659 10.5L4.00002 10.5C3.17388 10.5 2.50002 11.1739 2.50002 12C2.50002 12.8261 3.17388 13.5 4.00002 13.5Z" fill="white" stroke="white"/>
</svg>
