<svg width="18" height="18" viewBox="0 0 18 18" fill="none" xmlns="http://www.w3.org/2000/svg">
<path d="M13.5 2.25H11.115C10.8 1.38 9.975 0.75 9 0.75C8.025 0.75 7.2 1.38 6.885 2.25H4.5C3.675 2.25 3 2.925 3 3.75V15C3 15.825 3.675 16.5 4.5 16.5H9.0825C8.64 16.0725 8.28 15.5625 8.0175 15H4.5V3.75H6V4.5C6 5.325 6.675 6 7.5 6H10.5C11.325 6 12 5.325 12 4.5V3.75H13.5V7.56C14.0325 7.635 14.535 7.7925 15 8.01V3.75C15 2.925 14.325 2.25 13.5 2.25ZM9 3.75C8.5875 3.75 8.25 3.4125 8.25 3C8.25 2.5875 8.5875 2.25 9 2.25C9.4125 2.25 9.75 2.5875 9.75 3C9.75 3.4125 9.4125 3.75 9 3.75ZM12.75 9C10.68 9 9 10.68 9 12.75C9 14.82 10.68 16.5 12.75 16.5C14.82 16.5 16.5 14.82 16.5 12.75C16.5 10.68 14.82 9 12.75 9ZM13.7175 14.25L12.48 13.0125C12.4125 12.945 12.3675 12.8475 12.3675 12.75V10.8825C12.3675 10.6725 12.5325 10.5075 12.7425 10.5075C12.9525 10.5075 13.1175 10.6725 13.1175 10.8825V12.6L14.2425 13.725C14.3925 13.875 14.3925 14.1075 14.2425 14.2575C14.1 14.4 13.8675 14.4 13.7175 14.25Z" fill="#19456B" fill-opacity="0.4"/>
</svg>
