<svg width="57" height="57" viewBox="0 0 57 57" fill="none" xmlns="http://www.w3.org/2000/svg">
<path d="M2.00003 35.1614V10.9099C2.00003 9.56232 3.09244 8.46982 4.44013 8.46982H28.6791C30.0267 8.46982 31.1191 9.56232 31.1191 10.9099V35.1615C31.1191 35.6107 30.755 35.9748 30.3057 35.9748H2.8134C2.3641 35.9748 2.00003 35.6107 2.00003 35.1614ZM21.5738 43.4694C21.5738 46.2645 19.3078 48.5303 16.5129 48.5303C13.7179 48.5303 11.452 46.2645 11.452 43.4694C11.452 40.6743 13.7179 38.4085 16.5129 38.4085C19.3078 38.4085 21.5738 40.6743 21.5738 43.4694ZM19.0432 43.4694C19.0432 42.0719 17.9103 40.939 16.5128 40.939C15.1152 40.939 13.9822 42.0719 13.9822 43.4694C13.9822 44.8669 15.1152 46 16.5128 46C17.9103 46 19.0432 44.8669 19.0432 43.4694ZM12.1539 38.4084H0.813368C0.364167 38.4084 0 38.7726 0 39.2218V41.6895C0 42.1387 0.364167 42.5028 0.813368 42.5028H9.90338C10.1407 40.8744 10.9626 39.436 12.1539 38.4084ZM48.053 43.4694C48.053 46.2645 45.7871 48.5303 42.9922 48.5303C40.1971 48.5303 37.9313 46.2645 37.9313 43.4694C37.9313 40.6743 40.1971 38.4085 42.9922 38.4085C45.7871 38.4084 48.053 40.6743 48.053 43.4694ZM45.5227 43.4694C45.5227 42.0719 44.3897 40.939 42.9922 40.939C41.5945 40.939 40.4617 42.0719 40.4617 43.4694C40.4617 44.8669 41.5946 46 42.9922 46C44.3897 46 45.5227 44.8669 45.5227 43.4694ZM57 39.2218V41.6895C57 42.1387 56.6358 42.5028 56.1866 42.5028H49.6015C49.1305 39.2726 46.3504 36.7817 42.9923 36.7817C39.6336 36.7817 36.8535 39.2726 36.3825 42.5028H23.1223C22.8849 40.8745 22.0631 39.436 20.8718 38.4084H33.4448V15.1436C33.4448 14.2452 34.1731 13.5168 35.0715 13.5168H42.7502C44.9123 13.5168 46.9331 14.5908 48.1428 16.3827L53.0931 23.7145C53.8192 24.79 54.2072 26.058 54.2072 27.3556V38.4084H56.1866C56.6358 38.4084 57 38.7726 57 39.2218ZM48.7488 23.9023L44.7904 18.2775C44.638 18.061 44.3899 17.9322 44.1252 17.9322H37.9506C37.5015 17.9322 37.1373 18.2964 37.1373 18.7456V24.3704C37.1373 24.8197 37.5014 25.1838 37.9506 25.1838H48.0838C48.7426 25.1838 49.128 24.4412 48.7488 23.9023Z" fill="#1AA3E9"/>
</svg>
