<svg width="22" height="22" viewBox="0 0 22 22" fill="none" xmlns="http://www.w3.org/2000/svg">
<path d="M10.45 0.934991C6.06833 1.21916 2.75 5.05999 2.75 9.45082V15.5833C2.75 17.105 3.97833 18.3333 5.5 18.3333H6.41667C7.425 18.3333 8.25 17.5083 8.25 16.5V12.8333C8.25 11.825 7.425 11 6.41667 11H4.58333V9.43249C4.58333 5.91249 7.29667 2.85082 10.8075 2.74999C14.4467 2.64916 17.4167 5.55499 17.4167 9.16666V11H15.5833C14.575 11 13.75 11.825 13.75 12.8333V16.5C13.75 17.5083 14.575 18.3333 15.5833 18.3333H17.4167V19.25H11.9167C11.4125 19.25 11 19.6625 11 20.1667C11 20.6708 11.4125 21.0833 11.9167 21.0833H16.5C18.0217 21.0833 19.25 19.855 19.25 18.3333V9.16666C19.25 4.42749 15.2533 0.623325 10.45 0.934991Z" fill="#19456B" fill-opacity="0.54"/>
</svg>
