<svg width="11" height="11" viewBox="0 0 11 11" fill="none" xmlns="http://www.w3.org/2000/svg">
<g clip-path="url(#clip0)">
<path d="M10.9894 3.23403C10.9637 2.64956 10.8692 2.24774 10.7338 1.89956C10.5941 1.52997 10.3792 1.19908 10.0977 0.924009C9.82259 0.644657 9.48952 0.427589 9.12422 0.290096C8.77402 0.154701 8.3743 0.0601848 7.78983 0.0344153C7.20099 0.00646335 7.01406 0 5.5206 0C4.02715 0 3.84021 0.00646335 3.25356 0.0322329C2.66909 0.0580024 2.26727 0.152602 1.91917 0.287913C1.5495 0.427589 1.21861 0.642475 0.943539 0.924009C0.664188 1.19908 0.447204 1.53215 0.309627 1.89746C0.174232 2.24774 0.079716 2.64738 0.0539465 3.23185C0.0259946 3.82069 0.0195312 4.00762 0.0195312 5.50107C0.0195312 6.99453 0.0259946 7.18146 0.0517641 7.76812C0.0775336 8.35259 0.172134 8.75441 0.307528 9.10259C0.447204 9.47218 0.664188 9.80307 0.943539 10.0781C1.21861 10.3575 1.55168 10.5746 1.91699 10.7121C2.26727 10.8474 2.6669 10.942 3.25146 10.9677C3.83803 10.9936 4.02505 11 5.5185 11C7.01196 11 7.19889 10.9936 7.78555 10.9677C8.37002 10.942 8.77184 10.8474 9.11993 10.7121C9.85919 10.4262 10.4437 9.84177 10.7295 9.10259C10.8648 8.75231 10.9594 8.35259 10.9852 7.76812C11.0109 7.18146 11.0174 6.99453 11.0174 5.50107C11.0174 4.00762 11.0152 3.82069 10.9894 3.23403ZM9.99887 7.72514C9.9752 8.26236 9.88496 8.55245 9.80975 8.74585C9.62492 9.22506 9.24459 9.60539 8.76537 9.79023C8.57198 9.86544 8.27978 9.95567 7.74467 9.97926C7.16448 10.0051 6.99047 10.0115 5.52278 10.0115C4.0551 10.0115 3.87891 10.0051 3.30082 9.97926C2.7636 9.95567 2.47351 9.86544 2.28011 9.79023C2.04164 9.70209 1.82457 9.56242 1.64838 9.37976C1.46573 9.20139 1.32605 8.9865 1.23792 8.74803C1.16271 8.55464 1.07247 8.26236 1.04888 7.72732C1.02303 7.14713 1.01665 6.97304 1.01665 5.50536C1.01665 4.03767 1.02303 3.86148 1.04888 3.28347C1.07247 2.74626 1.16271 2.45616 1.23792 2.26276C1.32605 2.02421 1.46573 1.80722 1.65056 1.63095C1.82885 1.4483 2.04374 1.30862 2.28229 1.22057C2.47569 1.14536 2.76797 1.05512 3.303 1.03145C3.88319 1.00568 4.05728 0.999219 5.52488 0.999219C6.99475 0.999219 7.16876 1.00568 7.74685 1.03145C8.28406 1.05512 8.57416 1.14536 8.76756 1.22057C9.00603 1.30862 9.2231 1.4483 9.39929 1.63095C9.58194 1.80932 9.72161 2.02421 9.80975 2.26276C9.88496 2.45616 9.9752 2.74835 9.99887 3.28347C10.0246 3.86366 10.0311 4.03767 10.0311 5.50536C10.0311 6.97304 10.0246 7.14495 9.99887 7.72514Z" fill="#19456B" fill-opacity="0.54"/>
<path d="M5.52057 2.67532C3.96055 2.67532 2.69482 3.94097 2.69482 5.50107C2.69482 7.06118 3.96055 8.32682 5.52057 8.32682C7.08068 8.32682 8.34632 7.06118 8.34632 5.50107C8.34632 3.94097 7.08068 2.67532 5.52057 2.67532ZM5.52057 7.33407C4.50851 7.33407 3.68758 6.51322 3.68758 5.50107C3.68758 4.48893 4.50851 3.66808 5.52057 3.66808C6.53272 3.66808 7.35356 4.48893 7.35356 5.50107C7.35356 6.51322 6.53272 7.33407 5.52057 7.33407Z" fill="#19456B" fill-opacity="0.54"/>
<path d="M9.11779 2.56361C9.11779 2.92791 8.82241 3.2233 8.45802 3.2233C8.09372 3.2233 7.79834 2.92791 7.79834 2.56361C7.79834 2.19923 8.09372 1.90393 8.45802 1.90393C8.82241 1.90393 9.11779 2.19923 9.11779 2.56361Z" fill="#19456B" fill-opacity="0.54"/>
</g>
<defs>
<clipPath id="clip0">
<rect width="11" height="11" fill="white"/>
</clipPath>
</defs>
</svg>
