<svg width="18" height="18" viewBox="0 0 18 18" fill="none" xmlns="http://www.w3.org/2000/svg">
<path d="M3.75 3.75H8.25C8.6625 3.75 9 3.4125 9 3C9 2.5875 8.6625 2.25 8.25 2.25H3.75C2.925 2.25 2.25 2.925 2.25 3.75V14.25C2.25 15.075 2.925 15.75 3.75 15.75H8.25C8.6625 15.75 9 15.4125 9 15C9 14.5875 8.6625 14.25 8.25 14.25H3.75V3.75Z" fill="#19456B" fill-opacity="0.54"/>
<path d="M15.4875 8.73749L13.395 6.64499C13.155 6.40499 12.75 6.56999 12.75 6.90749V8.24999H7.5C7.0875 8.24999 6.75 8.58749 6.75 8.99999C6.75 9.41249 7.0875 9.74999 7.5 9.74999H12.75V11.0925C12.75 11.43 13.155 11.595 13.3875 11.355L15.48 9.26249C15.63 9.11999 15.63 8.87999 15.4875 8.73749Z" fill="#19456B" fill-opacity="0.54"/>
</svg>
