<svg width="19" height="19" viewBox="0 0 19 19" fill="none" xmlns="http://www.w3.org/2000/svg">
<path d="M9.50012 10.3833C10.7704 10.3833 13.7569 8.85461 13.7569 5.19161C13.7569 4.68067 13.7445 4.1871 13.7023 3.72076C13.6332 2.80297 13.4452 1.98959 12.9772 1.36623C12.3769 0.517945 11.3265 0 9.50012 0C7.67402 0 6.62375 0.517734 6.02341 1.36576C5.55506 1.98927 5.36698 2.80286 5.2979 3.72097C5.25583 4.18726 5.24341 4.68077 5.24341 5.19166C5.24336 8.85461 8.22987 10.3833 9.50012 10.3833ZM10.8896 1.90197C10.7656 2.21531 10.7035 2.37201 10.5794 2.68529C9.77865 2.45904 9.22148 2.45904 8.42068 2.68529C8.29669 2.37201 8.23456 2.21531 8.11051 1.90197C9.11201 1.5988 9.88822 1.59885 10.8896 1.90197ZM5.87661 4.3974C5.92568 4.50465 6.13403 4.91708 6.45653 4.95573C6.82725 5.00022 7.44261 3.64283 9.50012 3.63951C11.5576 3.64283 12.173 5.00022 12.5437 4.95573C12.8662 4.91703 13.0746 4.50465 13.1236 4.3974C13.1336 4.66024 13.1373 4.92635 13.1373 5.19166C13.1373 6.98212 12.3467 8.09151 11.6834 8.70687C10.8478 9.48228 9.91992 9.76371 9.50017 9.76371C9.08042 9.76371 8.15258 9.48228 7.31693 8.70687C6.65361 8.09151 5.86308 6.98212 5.86308 5.19166C5.86303 4.92635 5.86666 4.66024 5.87661 4.3974Z" fill="#19456B" fill-opacity="0.54"/>
<path d="M17.4028 15.7077C17.1854 14.3565 16.7381 12.6158 15.8407 11.9972C15.2278 11.5746 13.0897 10.4323 12.1766 9.94452L12.1612 9.93631C12.0568 9.88055 11.9294 9.89176 11.8364 9.96479C11.3581 10.3403 10.8342 10.5933 10.2792 10.7169C10.1812 10.7387 10.1007 10.8084 10.0651 10.9023L9.50002 12.3919L8.93485 10.9023C8.89931 10.8084 8.81885 10.7387 8.72076 10.7169C8.16585 10.5933 7.64196 10.3403 7.16371 9.96479C7.07052 9.89171 6.94315 9.88055 6.83879 9.93631C5.93664 10.4184 3.77235 11.584 3.16211 11.9954C2.12901 12.6913 1.67735 15.21 1.59727 15.7078C1.58937 15.7572 1.59395 15.8077 1.61059 15.8548C1.63249 15.9167 1.97416 16.8016 3.68284 17.5132C3.78136 17.389 3.91257 17.2949 4.06015 17.2419C3.87682 17.1768 3.7177 17.0493 3.61592 16.878C3.46428 16.6229 3.45865 16.3027 3.60086 16.0431C4.03893 15.2412 4.8779 14.7422 5.79143 14.741C6.64114 14.741 7.41139 15.1632 7.86879 15.8495H11.1294C11.2189 15.7158 11.3215 15.5908 11.4367 15.4752C11.908 15.0026 12.5349 14.7419 13.2021 14.7409H13.2027H13.2032C14.116 14.7409 14.956 15.2371 15.3956 16.0363C15.5381 16.2957 15.5333 16.6152 15.3825 16.8712C15.2813 17.0425 15.1226 17.1705 14.9395 17.2361C15.0897 17.2893 15.2229 17.3849 15.3222 17.5112C17.0265 16.8 17.3677 15.9167 17.3896 15.8549C17.4061 15.8076 17.4107 15.7571 17.4028 15.7077Z" fill="#19456B" fill-opacity="0.54"/>
<path d="M14.6591 17.9248H14.6589L13.088 17.9269C13.0601 17.8608 13.0066 17.6772 13.0061 17.239C13.0054 16.8009 13.0582 16.6169 13.086 16.5506L14.6566 16.5483C14.6941 16.5481 14.7287 16.5283 14.7477 16.4961C14.7669 16.4637 14.7674 16.4239 14.7494 16.391C14.4395 15.8277 13.8482 15.4779 13.203 15.4779C12.7326 15.4786 12.2908 15.6625 11.9587 15.9955C11.7876 16.1671 11.657 16.368 11.5699 16.5866H7.42786C7.16781 15.9381 6.53318 15.4781 5.79131 15.4781C5.14805 15.479 4.55655 15.8308 4.24763 16.3964C4.22963 16.4292 4.23036 16.4692 4.24948 16.5014C4.26859 16.5335 4.30324 16.5532 4.34067 16.5532H4.34078L5.91172 16.5507C5.93968 16.6168 5.99307 16.8005 5.9936 17.2388C5.99434 17.677 5.94147 17.8609 5.91367 17.927L4.34315 17.9294C4.30571 17.9295 4.27107 17.9494 4.25195 17.9815C4.23294 18.0138 4.23231 18.0538 4.25042 18.0866C4.56018 18.6499 5.15168 19 5.7941 19H5.79668C6.26718 18.9992 6.70894 18.8154 7.04112 18.4822C7.21225 18.3106 7.34277 18.1096 7.42975 17.891H11.5717C11.8318 18.5397 12.466 18.9997 13.206 18.9998C13.206 18.9998 13.2084 18.9998 13.2085 18.9998C13.8516 18.9989 14.4433 18.6469 14.7522 18.0816C14.7702 18.0487 14.7694 18.0087 14.7503 17.9766C14.7312 17.9444 14.6966 17.9248 14.6591 17.9248Z" fill="#19456B" fill-opacity="0.54"/>
</svg>
