<svg width="46" height="46" viewBox="0 0 46 46" fill="none" xmlns="http://www.w3.org/2000/svg">
<path d="M13.3648 26.2678C14.6575 26.2678 15.9071 26.1843 17.0895 26.0288V13.0685C15.9072 12.9132 14.6575 12.8297 13.3648 12.8297C5.98365 12.8297 0 15.5436 0 18.8914V20.206C0 23.5537 5.98365 26.2678 13.3648 26.2678Z" fill="#1AA3E9"/>
<path d="M13.3648 33.0351C14.6575 33.0351 15.9071 32.9516 17.0895 32.7964V28.9975C15.9068 29.1529 14.6579 29.2375 13.3648 29.2375C6.92186 29.2375 1.54425 27.1696 0.281085 24.4174C0.0971312 24.8183 0 25.2334 0 25.6589V26.9735C0 30.3213 5.98365 33.0351 13.3648 33.0351Z" fill="#1AA3E9"/>
<path d="M17.0895 36.0604V35.7651C15.9068 35.9204 14.6579 36.0051 13.3648 36.0051C6.92186 36.0051 1.54425 33.9371 0.281085 31.1849C0.0971312 31.5857 0 32.0008 0 32.4263V33.7409C0 37.0889 5.98365 39.8027 13.3648 39.8027C14.8409 39.8027 16.2607 39.6939 17.5883 39.4935C17.2592 38.8203 17.0895 38.1104 17.0895 37.3749V36.0604Z" fill="#1AA3E9"/>
<path d="M32.6353 2.56332C25.2542 2.56332 19.2705 5.27716 19.2705 8.62499V9.93959C19.2705 13.2874 25.2542 16.0013 32.6353 16.0013C40.0164 16.0013 46.0002 13.2874 46.0002 9.93959V8.62499C46.0002 5.27716 40.0164 2.56332 32.6353 2.56332Z" fill="#1AA3E9"/>
<path d="M32.6353 18.9711C26.1924 18.9711 20.8148 16.9033 19.5516 14.1509C19.3676 14.5517 19.2705 14.9668 19.2705 15.3925V16.7071C19.2705 20.0549 25.2542 22.7687 32.6353 22.7687C40.0164 22.7687 46.0002 20.0549 46.0002 16.7071V15.3925C46.0002 14.9668 45.903 14.5517 45.7191 14.1509C44.4559 16.9033 39.0783 18.9711 32.6353 18.9711Z" fill="#1AA3E9"/>
<path d="M32.6353 25.7387C26.1924 25.7387 20.8148 23.6708 19.5516 20.9185C19.3676 21.3193 19.2705 21.7344 19.2705 22.1601V23.4747C19.2705 26.8226 25.2542 29.5364 32.6353 29.5364C40.0164 29.5364 46.0002 26.8226 46.0002 23.4747V22.1601C46.0002 21.7344 45.903 21.3193 45.7191 20.9185C44.4559 23.6709 39.0783 25.7387 32.6353 25.7387Z" fill="#1AA3E9"/>
<path d="M32.6353 32.8715C26.1924 32.8715 20.8148 30.8036 19.5516 28.0514C19.3676 28.4523 19.2705 28.8673 19.2705 29.2928V30.6075C19.2705 33.9553 25.2542 36.6692 32.6353 36.6692C40.0164 36.6692 46.0002 33.9553 46.0002 30.6075V29.2928C46.0002 28.8673 45.903 28.4521 45.7191 28.0514C44.4559 30.8035 39.0783 32.8715 32.6353 32.8715Z" fill="#1AA3E9"/>
<path d="M32.6353 39.639C26.1924 39.639 20.8148 37.5712 19.5516 34.819C19.3676 35.2199 19.2705 35.6351 19.2705 36.0604V37.375C19.2705 40.7228 25.2542 43.4367 32.6353 43.4367C40.0164 43.4367 46.0002 40.7228 46.0002 37.375V36.0603C46.0002 35.6348 45.903 35.2195 45.7191 34.8189C44.4559 37.5711 39.0783 39.639 32.6353 39.639Z" fill="#1AA3E9"/>
</svg>
