<svg width="29" height="29" viewBox="0 0 29 29" fill="none" xmlns="http://www.w3.org/2000/svg">
<path d="M14.5 26.5833C15.8292 26.5833 16.9167 25.4958 16.9167 24.1667H12.0833C12.0833 25.4958 13.1588 26.5833 14.5 26.5833ZM21.75 19.3333V13.2917C21.75 9.58209 19.7683 6.47668 16.3125 5.65501V4.83334C16.3125 3.83043 15.5029 3.02084 14.5 3.02084C13.4971 3.02084 12.6875 3.83043 12.6875 4.83334V5.65501C9.21958 6.47668 7.25 9.57001 7.25 13.2917V19.3333L5.69125 20.8921C4.93 21.6533 5.46167 22.9583 6.53708 22.9583H22.4508C23.5263 22.9583 24.07 21.6533 23.3088 20.8921L21.75 19.3333Z" fill="#19456B" fill-opacity="0.4"/>
</svg>
