<svg width="44" height="44" viewBox="0 0 44 44" fill="none" xmlns="http://www.w3.org/2000/svg">
<path d="M42.6605 25.4506L40.0824 23.9621C40.1518 23.3173 40.1884 22.6628 40.1884 22C40.1884 21.3372 40.1518 20.6827 40.0824 20.0379L42.6605 18.5494C43.2113 18.2313 43.6055 17.7177 43.7699 17.1029C43.9345 16.4884 43.8499 15.8462 43.532 15.2954L38.5723 6.70489C38.1479 5.96966 37.3568 5.5132 36.507 5.5132C36.0912 5.5132 35.6801 5.62363 35.318 5.8327L32.7328 7.32529C31.6822 6.55472 30.5462 5.89416 29.3416 5.36062V2.3821C29.3417 1.06863 28.2726 0 26.9597 0H17.0397C15.7263 0 14.6579 1.06863 14.6579 2.3821V5.36062C13.4534 5.89416 12.3174 6.55472 11.2665 7.32529L8.68114 5.8327C8.31907 5.62363 7.9083 5.51334 7.49243 5.51334C6.64281 5.51334 5.85123 5.96966 5.42685 6.70489L0.467479 15.2953C0.149259 15.8461 0.0649498 16.4884 0.229879 17.1029C0.393956 17.7175 0.788395 18.2312 1.33896 18.5494L3.91722 20.0379C3.84781 20.6827 3.81119 21.3372 3.81119 22C3.81119 22.6628 3.84781 23.3173 3.91722 23.9621L1.33896 25.4506C0.788395 25.7687 0.393956 26.2823 0.229879 26.8971C0.0649498 27.5116 0.149259 28.1539 0.467479 28.7046L5.42685 37.2951C5.85123 38.0303 6.64267 38.4867 7.49243 38.4867C7.9083 38.4867 8.31907 38.3764 8.68114 38.1673L11.2666 36.6747C12.3174 37.4453 13.4534 38.1058 14.658 38.6394V41.618C14.658 42.2542 14.9056 42.8522 15.3555 43.3022C15.806 43.752 16.4037 44 17.0399 44H26.9599C28.2728 44 29.3417 42.9314 29.3417 41.618V38.6394C30.5462 38.1058 31.6822 37.4453 32.733 36.6747L35.3183 38.1674C35.6804 38.3765 36.0914 38.4868 36.5073 38.4868C37.3569 38.4868 38.1482 38.0305 38.5726 37.2952L43.5323 28.7049C43.8502 28.154 43.9348 27.5118 43.7701 26.8972C43.6056 26.2825 43.2113 25.7688 42.6605 25.4506ZM21.9998 34.9305C19.4123 34.9305 17.0027 34.1701 14.9812 32.8612L19.353 28.489C20.2683 28.8825 21.262 29.0908 22.2878 29.091C22.2881 29.091 22.2882 29.091 22.2884 29.091C24.277 29.091 26.1455 28.3151 27.5491 26.9066C29.4652 24.9853 30.1807 22.1712 29.4162 19.5624C29.3718 19.4107 29.2504 19.2936 29.0971 19.2545C28.9441 19.2152 28.7813 19.2602 28.6698 19.3722L23.9902 24.0659C23.7093 23.9518 23.0021 23.5631 21.6928 22.2582C20.3833 20.9528 19.993 20.2465 19.8784 19.9662L24.5575 15.2725C24.6692 15.1606 24.7133 14.9979 24.6739 14.8449C24.6344 14.6917 24.517 14.5708 24.3652 14.5268C23.6908 14.3312 22.9918 14.2319 22.2876 14.2319C20.2983 14.2319 18.4297 15.0074 17.0262 16.4155C15.6249 17.8211 14.8548 19.6882 14.8575 21.6727C14.8589 22.6952 15.067 23.6853 15.4593 24.5971L11.0987 28.958C9.81393 26.949 9.06891 24.5615 9.06891 22C9.06891 14.8588 14.858 9.06939 21.9998 9.06939C29.1416 9.06939 34.9304 14.8588 34.9304 22C34.9304 29.1412 29.1414 34.9305 21.9998 34.9305Z" fill="#1AA3E9"/>
</svg>
