<svg width="26" height="26" viewBox="0 0 26 26" fill="none" xmlns="http://www.w3.org/2000/svg">
<path d="M19.7038 19.3199C18.04 19.3199 16.668 20.6626 16.668 22.3557C16.668 24.0196 18.0108 25.3916 19.7038 25.3916C21.3677 25.3916 22.7397 24.0488 22.7397 22.3557C22.7105 20.6918 21.3677 19.3199 19.7038 19.3199Z" fill="#19456B" fill-opacity="0.4"/>
<path d="M25.046 4.84105C24.9876 4.84105 24.9 4.81186 24.8125 4.81186H6.42205L6.13014 2.85605C5.95499 1.57164 4.84573 0.608337 3.53213 0.608337H1.16765C0.52544 0.608337 0 1.13378 0 1.77598C0 2.41819 0.52544 2.94363 1.16765 2.94363H3.53213C3.67808 2.94363 3.79485 3.06039 3.82404 3.20635L5.63389 15.525C5.86742 17.0721 7.21021 18.2398 8.78653 18.2398H20.93C22.448 18.2398 23.7616 17.1597 24.0827 15.671L25.9801 6.18384C26.0969 5.57083 25.6882 4.95782 25.046 4.84105Z" fill="#19456B" fill-opacity="0.4"/>
<path d="M12.2602 22.2098C12.2018 20.6043 10.8591 19.3199 9.25355 19.3199C7.56046 19.4074 6.27605 20.8086 6.33443 22.4725C6.39282 24.078 7.70642 25.3624 9.31193 25.3624H9.37031C11.0342 25.2748 12.3478 23.8737 12.2602 22.2098Z" fill="#19456B" fill-opacity="0.4"/>
</svg>
