<svg width="28" height="28" viewBox="0 0 28 28" fill="none" xmlns="http://www.w3.org/2000/svg">
<path d="M22.1668 10.85V5.83333C22.1668 5.19166 21.6418 4.66666 21.0001 4.66666H19.8334C19.1918 4.66666 18.6668 5.19166 18.6668 5.83333V7.7L14.7818 4.2C14.3384 3.80333 13.6618 3.80333 13.2184 4.2L3.46511 12.985C3.06845 13.335 3.31345 14 3.85011 14H5.83345V22.1667C5.83345 22.8083 6.35845 23.3333 7.00011 23.3333H10.5001C11.1418 23.3333 11.6668 22.8083 11.6668 22.1667V16.3333H16.3334V22.1667C16.3334 22.8083 16.8584 23.3333 17.5001 23.3333H21.0001C21.6418 23.3333 22.1668 22.8083 22.1668 22.1667V14H24.1501C24.6868 14 24.9434 13.335 24.5351 12.985L22.1668 10.85ZM11.6668 11.6667C11.6668 10.3833 12.7168 9.33333 14.0001 9.33333C15.2834 9.33333 16.3334 10.3833 16.3334 11.6667H11.6668Z" fill="#19456B" fill-opacity="0.54"/>
</svg>
