<svg width="44" height="44" viewBox="0 0 44 44" fill="none" xmlns="http://www.w3.org/2000/svg">
<path d="M34.4191 28.4333C32.6765 30.8266 29.8539 32.3853 26.6737 32.3853H22.2113C20.6698 32.3853 19.3571 31.4066 18.86 30.0369C18.2465 29.8539 17.6448 29.6163 17.0576 29.3245C15.8142 28.7067 14.6852 27.8697 13.6913 26.8329C7.24446 28.2492 2.41943 33.9936 2.41943 40.8659V41.7642C2.41943 42.999 3.42049 44 4.65529 44H39.345C40.5798 44 41.5808 42.999 41.5808 41.7642V40.8659C41.5807 35.557 38.7011 30.921 34.4191 28.4333Z" fill="#1AA3E9"/>
<path d="M11.3149 22.2244C12.2759 22.2244 13.1123 21.6918 13.5456 20.9058C13.557 20.9369 13.5686 20.9678 13.5803 20.9988C13.5837 21.008 13.5872 21.0173 13.5906 21.0266C14.6072 23.7024 16.5852 25.9455 19.1934 26.9256C19.8242 25.9233 20.9396 25.2567 22.2115 25.2567H26.6738C27.1189 25.2567 27.5332 25.1311 27.8964 24.9281C28.5063 24.5871 29.0548 23.7218 29.338 23.2632C29.7913 22.5293 30.1425 21.752 30.4538 20.9045C30.6288 21.2223 30.8695 21.4987 31.1578 21.7153V22.8095C31.1578 25.282 29.1463 27.2936 26.6737 27.2936H22.2114C21.3678 27.2936 20.6839 27.9775 20.6839 28.8211C20.6839 29.6648 21.3678 30.3486 22.2114 30.3486H26.6737C30.8308 30.3486 34.2128 26.9666 34.2128 22.8095V21.7153C34.8312 21.2508 35.2312 20.5114 35.2312 19.6786V15.0726V13.3063C35.2312 12.4563 34.8143 11.7042 34.1742 11.2418C33.6778 4.95989 28.4074 0 22.0001 0C15.5927 0 10.3224 4.95989 9.826 11.2417C9.18591 11.7041 8.76904 12.4563 8.76904 13.3062V19.6784C8.76904 21.0884 9.91454 22.2244 11.3149 22.2244ZM22.0001 3.05514C26.7433 3.05514 30.6555 6.67991 31.1128 11.3049C30.8126 11.541 30.5667 11.8428 30.3973 12.1891C28.9559 8.42864 25.7383 5.81047 22 5.81047C18.1811 5.81047 15.0151 8.51862 13.6084 12.1741C13.6065 12.1791 13.6047 12.1842 13.6028 12.1892C13.4333 11.8429 13.1874 11.5411 12.8873 11.305C13.3448 6.67991 17.2569 3.05514 22.0001 3.05514Z" fill="#1AA3E9"/>
</svg>
