<svg width="15" height="15" viewBox="0 0 15 15" fill="none" xmlns="http://www.w3.org/2000/svg">
<g clip-path="url(#clip0)">
<path d="M14.6909 3.89925C14.518 3.25667 14.0114 2.75016 13.3689 2.57712C12.1951 2.25589 7.49985 2.25589 7.49985 2.25589C7.49985 2.25589 2.80471 2.25589 1.63089 2.56488C1.00078 2.7378 0.481794 3.25679 0.308875 3.89925C0 5.07296 0 7.5071 0 7.5071C0 7.5071 0 9.9535 0.308875 11.115C0.481909 11.7574 0.988422 12.2641 1.63101 12.4371C2.81707 12.7583 7.49997 12.7583 7.49997 12.7583C7.49997 12.7583 12.1951 12.7583 13.3689 12.4493C14.0115 12.2764 14.518 11.7698 14.6911 11.1273C14.9999 9.9535 14.9999 7.51946 14.9999 7.51946C14.9999 7.51946 15.0123 5.07296 14.6909 3.89925Z" fill="#19456B" fill-opacity="0.54"/>
<path d="M6.00488 9.75586L9.90927 7.5071L6.00488 5.25833V9.75586Z" fill="white"/>
</g>
<defs>
<clipPath id="clip0">
<rect width="15" height="15" fill="white"/>
</clipPath>
</defs>
</svg>
